# xmcd
#
# Track frame offsets:
#   150
#   16813
#   29825
#   44192
#   57098
#   74175
#   90166
#   106649
#   122149
#   139994
#   152096
#   172264
#   186224
#   208146
#   224251
#   235770
#   251942
#   271601
#   286004
#   302052
#   322269
#
# Disc length: 4537 seconds
#
# Revision: 0
# Processed by: cddbd v1.4PL0 Copyright (c) Steve Scherf et al.
# Submitted via: uFREEDB 1.6.0
#
DISCID=4211b715
DTITLE=Coletânea - Bandinha
DYEAR=2003
DGENRE=Bandinha
TTITLE0=Propaganda enganosa
TTITLE1=Operação plástica
TTITLE2=Baile de interior
TTITLE3=Cuida bem da tua maréca
TTITLE4=Tô te visitando
TTITLE5=Diga que vai me perdoar
TTITLE6=Mata pau
TTITLE7=Vem me namorar-mata pau
TTITLE8=Vem me namorar
TTITLE9=Vem me namorar
TTITLE10=mata pau
TTITLE11=Mata pau
TTITLE12=Mata pau
TTITLE13=Vem mem namorar-Foi demais a minha dor
TTITLE14=Mais uma noite sem você
TTITLE15=Festera
TTITLE16=Sabor de morango
TTITLE17=Vc não vem me aquecer
TTITLE18=Sua langerri
TTITLE19=Beijo com cerveja
TTITLE20=Três bandoleros
EXTD=
EXTT0=
EXTT1=
EXTT2=
EXTT3=
EXTT4=
EXTT5=
EXTT6=
EXTT7=
EXTT8=
EXTT9=
EXTT10=
EXTT11=
EXTT12=
EXTT13=
EXTT14=
EXTT15=
EXTT16=
EXTT17=
EXTT18=
EXTT19=
EXTT20=
PLAYORDER=
